<svg xmlns="http://www.w3.org/2000/svg" viewBox="0 0 486.0 473.0" fill="currentColor" role="img" aria-label="Seraya icon">
<g transform="translate(0.000000,473.000000) scale(0.100000,-0.100000)" fill="currentColor" stroke="none"><path d="M3716 4689 c-69 -11 -144 -36 -191 -64 -51 -29 -112 -84 -423 -377
-282 -265 -332 -299 -467 -317 -38 -5 -264 -10 -501 -11 -393 -1 -439 -3 -514
-21 -144 -34 -293 -115 -417 -226 -77 -69 -709 -821 -736 -876 -55 -114 -57
-133 -57 -666 l0 -491 734 0 c449 0 754 4 787 10 102 19 173 64 303 190 67 64
183 175 259 246 l137 129 -691 5 -691 5 -19 24 c-23 28 -24 43 -5 80 14 27
370 377 906 891 655 629 658 632 760 676 42 18 80 19 555 24 492 5 512 6 567
27 32 12 80 36 107 55 42 28 711 681 711 694 0 8 -1065 2 -1114 -7z M2667
2990 c-81 -26 -122 -55 -256 -184 -64 -62 -180 -173 -258 -247 l-143 -134 689
-5 c660 -5 690 -6 710 -24 14 -13 21 -31 21 -55 0 -39 26 -11 -470 -496 -1007
-985 -1047 -1023 -1108 -1054 -85 -43 -101 -44 -587 -51 -519 -6 -504 -4 -608
-74 -29 -20 -182 -168 -340 -331 l-289 -295 524 0 c570 0 599 3 702 57 35 19
137 112 321 294 198 195 284 273 322 293 108 54 129 56 633 56 344 1 485 4
540 14 159 28 332 122 460 249 60 59 107 122 379 507 52 74 140 198 195 275
113 159 174 268 207 370 21 66 23 89 27 429 2 197 1 374 -3 392 l-6 34 -802
-1 c-753 0 -806 -1 -860 -19z"/></g>
</svg>
